<?xml version="1.0" encoding="UTF-8" standalone="no"?>
<!DOCTYPE svg PUBLIC "-//W3C//DTD SVG 1.1//EN"
 "http://www.w3.org/Graphics/SVG/1.1/DTD/svg11.dtd">
<!-- Generated by graphviz version 2.40.1 (20161225.0304)
 -->
<!-- Title: %3 Pages: 1 -->
<svg width="600pt" height="206pt"
 viewBox="0.00 0.00 599.56 206.00" xmlns="http://www.w3.org/2000/svg" xmlns:xlink="http://www.w3.org/1999/xlink">
<g id="graph0" class="graph" transform="scale(1 1) rotate(0) translate(4 202)">
<title>%3</title>
<!-- .proto schema -->
<g id="node1" class="node">
<title>.proto schema</title>
<ellipse fill="none" stroke="#000000" cx="61.0946" cy="-99" rx="61.1893" ry="18"/>
<text text-anchor="middle" x="61.0946" y="-95.3" font-family="Times,serif" font-size="14.00" fill="#000000">.proto schema</text>
</g>
<!-- okra types -->
<g id="node2" class="node">
<title>okra types</title>
<ellipse fill="none" stroke="#000000" cx="205.6349" cy="-99" rx="47.3916" ry="18"/>
<text text-anchor="middle" x="205.6349" y="-95.3" font-family="Times,serif" font-size="14.00" fill="#000000">okra types</text>
</g>
<!-- .proto schema&#45;&gt;okra types -->
<g id="edge1" class="edge">
<title>.proto schema&#45;&gt;okra types</title>
<path fill="none" stroke="#000000" d="M122.3927,-99C130.8167,-99 139.4443,-99 147.8033,-99"/>
<polygon fill="#000000" stroke="#000000" points="147.8344,-102.5001 157.8344,-99 147.8343,-95.5001 147.8344,-102.5001"/>
</g>
<!-- okra tables -->
<g id="node3" class="node">
<title>okra tables</title>
<ellipse fill="none" stroke="#000000" cx="342.376" cy="-126" rx="49.2915" ry="18"/>
<text text-anchor="middle" x="342.376" y="-122.3" font-family="Times,serif" font-size="14.00" fill="#000000">okra tables</text>
</g>
<!-- okra types&#45;&gt;okra tables -->
<g id="edge2" class="edge">
<title>okra types&#45;&gt;okra tables</title>
<path fill="none" stroke="#000000" d="M247.7775,-107.3212C260.6592,-109.8647 275.0051,-112.6974 288.552,-115.3723"/>
<polygon fill="#000000" stroke="#000000" points="288.2295,-118.8761 298.7182,-117.3796 289.5856,-112.0087 288.2295,-118.8761"/>
</g>
<!-- okra CRUD -->
<g id="node6" class="node">
<title>okra CRUD</title>
<ellipse fill="none" stroke="#000000" cx="342.376" cy="-72" rx="53.0913" ry="18"/>
<text text-anchor="middle" x="342.376" y="-68.3" font-family="Times,serif" font-size="14.00" fill="#000000">okra CRUD</text>
</g>
<!-- okra types&#45;&gt;okra CRUD -->
<g id="edge5" class="edge">
<title>okra types&#45;&gt;okra CRUD</title>
<path fill="none" stroke="#000000" d="M247.7775,-90.6788C259.9138,-88.2825 273.3495,-85.6295 286.1924,-83.0936"/>
<polygon fill="#000000" stroke="#000000" points="287.1964,-86.4631 296.3289,-81.0922 285.8403,-79.5957 287.1964,-86.4631"/>
</g>
<!-- MySQL statements -->
<g id="node4" class="node">
<title>MySQL statements</title>
<ellipse fill="none" stroke="#000000" cx="511.6142" cy="-180" rx="79.8859" ry="18"/>
<text text-anchor="middle" x="511.6142" y="-176.3" font-family="Times,serif" font-size="14.00" fill="#000000">MySQL statements</text>
</g>
<!-- okra tables&#45;&gt;MySQL statements -->
<g id="edge3" class="edge">
<title>okra tables&#45;&gt;MySQL statements</title>
<path fill="none" stroke="#000000" d="M379.9354,-137.9844C402.2014,-145.0889 430.8414,-154.2273 455.7219,-162.166"/>
<polygon fill="#000000" stroke="#000000" points="454.8168,-165.5511 465.4076,-165.2565 456.9447,-158.8823 454.8168,-165.5511"/>
</g>
<!-- SQLite Statements -->
<g id="node5" class="node">
<title>SQLite Statements</title>
<ellipse fill="none" stroke="#000000" cx="511.6142" cy="-126" rx="77.1866" ry="18"/>
<text text-anchor="middle" x="511.6142" y="-122.3" font-family="Times,serif" font-size="14.00" fill="#000000">SQLite Statements</text>
</g>
<!-- okra tables&#45;&gt;SQLite Statements -->
<g id="edge4" class="edge">
<title>okra tables&#45;&gt;SQLite Statements</title>
<path fill="none" stroke="#000000" d="M391.7816,-126C401.9405,-126 412.9236,-126 423.9754,-126"/>
<polygon fill="#000000" stroke="#000000" points="424.1227,-129.5001 434.1227,-126 424.1226,-122.5001 424.1227,-129.5001"/>
</g>
<!-- Go package -->
<g id="node7" class="node">
<title>Go package</title>
<ellipse fill="none" stroke="#000000" cx="511.6142" cy="-72" rx="52.7911" ry="18"/>
<text text-anchor="middle" x="511.6142" y="-68.3" font-family="Times,serif" font-size="14.00" fill="#000000">Go package</text>
</g>
<!-- okra CRUD&#45;&gt;Go package -->
<g id="edge6" class="edge">
<title>okra CRUD&#45;&gt;Go package</title>
<path fill="none" stroke="#000000" d="M395.924,-72C412.6809,-72 431.3256,-72 448.668,-72"/>
<polygon fill="#000000" stroke="#000000" points="448.7044,-75.5001 458.7044,-72 448.7043,-68.5001 448.7044,-75.5001"/>
</g>
<!-- Python module -->
<g id="node8" class="node">
<title>Python module</title>
<ellipse fill="none" stroke="#000000" cx="511.6142" cy="-18" rx="64.9885" ry="18"/>
<text text-anchor="middle" x="511.6142" y="-14.3" font-family="Times,serif" font-size="14.00" fill="#000000">Python module</text>
</g>
<!-- okra CRUD&#45;&gt;Python module -->
<g id="edge7" class="edge">
<title>okra CRUD&#45;&gt;Python module</title>
<path fill="none" stroke="#000000" d="M381.2027,-59.6113C404.2913,-52.2443 433.8888,-42.8004 459.0495,-34.7722"/>
<polygon fill="#000000" stroke="#000000" points="460.3463,-38.0323 468.8092,-31.6581 458.2184,-31.3636 460.3463,-38.0323"/>
</g>
</g>
</svg>
