<?xml version="1.0" encoding="UTF-8" standalone="no"?>
<!DOCTYPE svg PUBLIC "-//W3C//DTD SVG 1.1//EN"
 "http://www.w3.org/Graphics/SVG/1.1/DTD/svg11.dtd">
<!-- Generated by graphviz version 2.43.0 (0)
 -->
<!-- Title: %3 Pages: 1 -->
<svg width="665pt" height="206pt"
 viewBox="0.00 0.00 665.26 206.00" xmlns="http://www.w3.org/2000/svg" xmlns:xlink="http://www.w3.org/1999/xlink">
<g id="graph0" class="graph" transform="scale(1 1) rotate(0) translate(4 202)">
<title>%3</title>
<!-- .proto schema -->
<g id="node1" class="node">
<title>.proto schema</title>
<ellipse fill="none" stroke="black" cx="61.09" cy="-99" rx="61.19" ry="18"/>
<text text-anchor="middle" x="61.09" y="-95.3" font-family="Times,serif" font-size="14.00">.proto schema</text>
</g>
<!-- okra types -->
<g id="node2" class="node">
<title>okra types</title>
<ellipse fill="none" stroke="black" cx="206.63" cy="-99" rx="47.39" ry="18"/>
<text text-anchor="middle" x="206.63" y="-95.3" font-family="Times,serif" font-size="14.00">okra types</text>
</g>
<!-- .proto schema&#45;&gt;okra types -->
<g id="edge1" class="edge">
<title>.proto schema&#45;&gt;okra types</title>
<path fill="none" stroke="black" d="M122.55,-99C131.16,-99 139.99,-99 148.53,-99"/>
<polygon fill="black" stroke="black" points="148.77,-102.5 158.77,-99 148.77,-95.5 148.77,-102.5"/>
</g>
<!-- okra tables -->
<g id="node3" class="node">
<title>okra tables</title>
<ellipse fill="none" stroke="black" cx="408.38" cy="-126" rx="49.29" ry="18"/>
<text text-anchor="middle" x="408.38" y="-122.3" font-family="Times,serif" font-size="14.00">okra tables</text>
</g>
<!-- okra types&#45;&gt;okra tables -->
<g id="edge2" class="edge">
<title>okra types&#45;&gt;okra tables</title>
<path fill="none" stroke="black" d="M251.47,-104.93C281,-108.92 320.2,-114.22 351.9,-118.5"/>
<polygon fill="black" stroke="black" points="351.53,-121.98 361.91,-119.85 352.47,-115.05 351.53,-121.98"/>
</g>
<!-- okra CRUD -->
<g id="node6" class="node">
<title>okra CRUD</title>
<ellipse fill="none" stroke="black" cx="408.38" cy="-72" rx="53.09" ry="18"/>
<text text-anchor="middle" x="408.38" y="-68.3" font-family="Times,serif" font-size="14.00">okra CRUD</text>
</g>
<!-- okra types&#45;&gt;okra CRUD -->
<g id="edge5" class="edge">
<title>okra types&#45;&gt;okra CRUD</title>
<path fill="none" stroke="black" d="M249.88,-91.47C257.27,-90.24 264.89,-89.04 272.08,-88 296.55,-84.47 323.6,-81.15 347.03,-78.47"/>
<polygon fill="black" stroke="black" points="347.64,-81.92 357.18,-77.32 346.85,-74.96 347.64,-81.92"/>
<text text-anchor="middle" x="304.58" y="-91.8" font-family="Times,serif" font-size="14.00">SQL dialect</text>
</g>
<!-- MySQL statements -->
<g id="node4" class="node">
<title>MySQL statements</title>
<ellipse fill="none" stroke="black" cx="577.96" cy="-180" rx="79.09" ry="18"/>
<text text-anchor="middle" x="577.96" y="-176.3" font-family="Times,serif" font-size="14.00">MySQL statements</text>
</g>
<!-- okra tables&#45;&gt;MySQL statements -->
<g id="edge3" class="edge">
<title>okra tables&#45;&gt;MySQL statements</title>
<path fill="none" stroke="black" d="M446.15,-137.85C468.35,-145 497.07,-154.26 521.93,-162.27"/>
<polygon fill="black" stroke="black" points="521.01,-165.65 531.61,-165.38 523.16,-158.99 521.01,-165.65"/>
</g>
<!-- SQLite Statements -->
<g id="node5" class="node">
<title>SQLite Statements</title>
<ellipse fill="none" stroke="black" cx="577.96" cy="-126" rx="77.19" ry="18"/>
<text text-anchor="middle" x="577.96" y="-122.3" font-family="Times,serif" font-size="14.00">SQLite Statements</text>
</g>
<!-- okra tables&#45;&gt;SQLite Statements -->
<g id="edge4" class="edge">
<title>okra tables&#45;&gt;SQLite Statements</title>
<path fill="none" stroke="black" d="M457.85,-126C468.06,-126 479.13,-126 490.27,-126"/>
<polygon fill="black" stroke="black" points="490.5,-129.5 500.5,-126 490.5,-122.5 490.5,-129.5"/>
</g>
<!-- Go package -->
<g id="node7" class="node">
<title>Go package</title>
<ellipse fill="none" stroke="black" cx="577.96" cy="-72" rx="52.79" ry="18"/>
<text text-anchor="middle" x="577.96" y="-68.3" font-family="Times,serif" font-size="14.00">Go package</text>
</g>
<!-- okra CRUD&#45;&gt;Go package -->
<g id="edge6" class="edge">
<title>okra CRUD&#45;&gt;Go package</title>
<path fill="none" stroke="black" d="M461.94,-72C478.79,-72 497.61,-72 515.07,-72"/>
<polygon fill="black" stroke="black" points="515.16,-75.5 525.16,-72 515.16,-68.5 515.16,-75.5"/>
</g>
<!-- Python module -->
<g id="node8" class="node">
<title>Python module</title>
<ellipse fill="none" stroke="black" cx="577.96" cy="-18" rx="64.99" ry="18"/>
<text text-anchor="middle" x="577.96" y="-14.3" font-family="Times,serif" font-size="14.00">Python module</text>
</g>
<!-- okra CRUD&#45;&gt;Python module -->
<g id="edge7" class="edge">
<title>okra CRUD&#45;&gt;Python module</title>
<path fill="none" stroke="black" d="M447.82,-59.61C470.77,-52.22 500.22,-42.73 525.19,-34.68"/>
<polygon fill="black" stroke="black" points="526.43,-37.96 534.87,-31.56 524.28,-31.3 526.43,-37.96"/>
</g>
</g>
</svg>
