<?xml version="1.0" encoding="UTF-8" standalone="no"?>
<!DOCTYPE svg PUBLIC "-//W3C//DTD SVG 1.1//EN"
 "http://www.w3.org/Graphics/SVG/1.1/DTD/svg11.dtd">
<!-- Generated by graphviz version 2.43.0 (0)
 -->
<!-- Title: %3 Pages: 1 -->
<svg width="598pt" height="206pt"
 viewBox="0.00 0.00 598.26 206.00" xmlns="http://www.w3.org/2000/svg" xmlns:xlink="http://www.w3.org/1999/xlink">
<g id="graph0" class="graph" transform="scale(1 1) rotate(0) translate(4 202)">
<title>%3</title>
<!-- .proto schema -->
<g id="node1" class="node">
<title>.proto schema</title>
<ellipse fill="none" stroke="black" cx="61.09" cy="-99" rx="61.19" ry="18"/>
<text text-anchor="middle" x="61.09" y="-95.3" font-family="Times,serif" font-size="14.00">.proto schema</text>
</g>
<!-- okra types -->
<g id="node2" class="node">
<title>okra types</title>
<ellipse fill="none" stroke="black" cx="205.63" cy="-99" rx="47.39" ry="18"/>
<text text-anchor="middle" x="205.63" y="-95.3" font-family="Times,serif" font-size="14.00">okra types</text>
</g>
<!-- .proto schema&#45;&gt;okra types -->
<g id="edge1" class="edge">
<title>.proto schema&#45;&gt;okra types</title>
<path fill="none" stroke="black" d="M122.54,-99C130.96,-99 139.58,-99 147.92,-99"/>
<polygon fill="black" stroke="black" points="147.93,-102.5 157.93,-99 147.93,-95.5 147.93,-102.5"/>
</g>
<!-- okra tables -->
<g id="node3" class="node">
<title>okra tables</title>
<ellipse fill="none" stroke="black" cx="342.38" cy="-126" rx="49.29" ry="18"/>
<text text-anchor="middle" x="342.38" y="-122.3" font-family="Times,serif" font-size="14.00">okra tables</text>
</g>
<!-- okra types&#45;&gt;okra tables -->
<g id="edge2" class="edge">
<title>okra types&#45;&gt;okra tables</title>
<path fill="none" stroke="black" d="M248.16,-107.32C260.98,-109.89 275.27,-112.75 288.73,-115.45"/>
<polygon fill="black" stroke="black" points="288.33,-118.94 298.82,-117.47 289.71,-112.08 288.33,-118.94"/>
</g>
<!-- okra CRUD -->
<g id="node6" class="node">
<title>okra CRUD</title>
<ellipse fill="none" stroke="black" cx="342.38" cy="-72" rx="53.09" ry="18"/>
<text text-anchor="middle" x="342.38" y="-68.3" font-family="Times,serif" font-size="14.00">okra CRUD</text>
</g>
<!-- okra types&#45;&gt;okra CRUD -->
<g id="edge5" class="edge">
<title>okra types&#45;&gt;okra CRUD</title>
<path fill="none" stroke="black" d="M248.16,-90.68C260.12,-88.28 273.36,-85.63 286.01,-83.09"/>
<polygon fill="black" stroke="black" points="286.89,-86.49 296,-81.09 285.51,-79.63 286.89,-86.49"/>
</g>
<!-- MySQL statements -->
<g id="node4" class="node">
<title>MySQL statements</title>
<ellipse fill="none" stroke="black" cx="510.96" cy="-180" rx="79.09" ry="18"/>
<text text-anchor="middle" x="510.96" y="-176.3" font-family="Times,serif" font-size="14.00">MySQL statements</text>
</g>
<!-- okra tables&#45;&gt;MySQL statements -->
<g id="edge3" class="edge">
<title>okra tables&#45;&gt;MySQL statements</title>
<path fill="none" stroke="black" d="M379.93,-137.85C401.92,-144.98 430.32,-154.18 454.98,-162.18"/>
<polygon fill="black" stroke="black" points="453.98,-165.53 464.57,-165.29 456.14,-158.87 453.98,-165.53"/>
</g>
<!-- SQLite Statements -->
<g id="node5" class="node">
<title>SQLite Statements</title>
<ellipse fill="none" stroke="black" cx="510.96" cy="-126" rx="77.19" ry="18"/>
<text text-anchor="middle" x="510.96" y="-122.3" font-family="Times,serif" font-size="14.00">SQLite Statements</text>
</g>
<!-- okra tables&#45;&gt;SQLite Statements -->
<g id="edge4" class="edge">
<title>okra tables&#45;&gt;SQLite Statements</title>
<path fill="none" stroke="black" d="M392.01,-126C401.83,-126 412.44,-126 423.13,-126"/>
<polygon fill="black" stroke="black" points="423.37,-129.5 433.37,-126 423.37,-122.5 423.37,-129.5"/>
</g>
<!-- Go package -->
<g id="node7" class="node">
<title>Go package</title>
<ellipse fill="none" stroke="black" cx="510.96" cy="-72" rx="52.79" ry="18"/>
<text text-anchor="middle" x="510.96" y="-68.3" font-family="Times,serif" font-size="14.00">Go package</text>
</g>
<!-- okra CRUD&#45;&gt;Go package -->
<g id="edge6" class="edge">
<title>okra CRUD&#45;&gt;Go package</title>
<path fill="none" stroke="black" d="M396.09,-72C412.5,-72 430.77,-72 447.77,-72"/>
<polygon fill="black" stroke="black" points="448.17,-75.5 458.17,-72 448.17,-68.5 448.17,-75.5"/>
</g>
<!-- Python module -->
<g id="node8" class="node">
<title>Python module</title>
<ellipse fill="none" stroke="black" cx="510.96" cy="-18" rx="64.99" ry="18"/>
<text text-anchor="middle" x="510.96" y="-14.3" font-family="Times,serif" font-size="14.00">Python module</text>
</g>
<!-- okra CRUD&#45;&gt;Python module -->
<g id="edge7" class="edge">
<title>okra CRUD&#45;&gt;Python module</title>
<path fill="none" stroke="black" d="M381.59,-59.61C404.41,-52.22 433.67,-42.73 458.5,-34.68"/>
<polygon fill="black" stroke="black" points="459.69,-37.98 468.13,-31.56 457.53,-31.32 459.69,-37.98"/>
</g>
</g>
</svg>
