<?xml version="1.0" encoding="UTF-8" standalone="no"?>
<!DOCTYPE svg PUBLIC "-//W3C//DTD SVG 1.1//EN"
 "http://www.w3.org/Graphics/SVG/1.1/DTD/svg11.dtd">
<!-- Generated by graphviz version 2.43.0 (0)
 -->
<!-- Title: %3 Pages: 1 -->
<svg width="790pt" height="123pt"
 viewBox="0.00 0.00 789.87 122.54" xmlns="http://www.w3.org/2000/svg" xmlns:xlink="http://www.w3.org/1999/xlink">
<g id="graph0" class="graph" transform="scale(1 1) rotate(0) translate(4 118.54)">
<title>%3</title>
<!-- .proto schema -->
<g id="node1" class="node">
<title>.proto schema</title>
<ellipse fill="none" stroke="black" cx="61.09" cy="-42.54" rx="61.19" ry="18"/>
<text text-anchor="middle" x="61.09" y="-38.84" font-family="Times,serif" font-size="14.00">.proto schema</text>
</g>
<!-- okra types -->
<g id="node2" class="node">
<title>okra types</title>
<ellipse fill="none" stroke="black" cx="205.63" cy="-42.54" rx="47.39" ry="18"/>
<text text-anchor="middle" x="205.63" y="-38.84" font-family="Times,serif" font-size="14.00">okra types</text>
</g>
<!-- .proto schema&#45;&gt;okra types -->
<g id="edge1" class="edge">
<title>.proto schema&#45;&gt;okra types</title>
<path fill="none" stroke="black" d="M122.54,-42.54C130.96,-42.54 139.58,-42.54 147.92,-42.54"/>
<polygon fill="black" stroke="black" points="147.93,-46.04 157.93,-42.54 147.93,-39.04 147.93,-46.04"/>
</g>
<!-- okra tables -->
<g id="node3" class="node">
<title>okra tables</title>
<ellipse fill="none" stroke="black" cx="344.98" cy="-42.54" rx="49.29" ry="18"/>
<text text-anchor="middle" x="344.98" y="-38.84" font-family="Times,serif" font-size="14.00">okra tables</text>
</g>
<!-- okra types&#45;&gt;okra tables -->
<g id="edge2" class="edge">
<title>okra types&#45;&gt;okra tables</title>
<path fill="none" stroke="black" d="M253.13,-42.54C263.39,-42.54 274.39,-42.54 285.07,-42.54"/>
<polygon fill="black" stroke="black" points="285.18,-46.04 295.18,-42.54 285.18,-39.04 285.18,-46.04"/>
</g>
<!-- okra legends -->
<g id="node4" class="node">
<title>okra legends</title>
<ellipse fill="none" stroke="black" cx="344.98" cy="-96.54" rx="55.79" ry="18"/>
<text text-anchor="middle" x="344.98" y="-92.84" font-family="Times,serif" font-size="14.00">okra legends</text>
</g>
<!-- okra types&#45;&gt;okra legends -->
<g id="edge3" class="edge">
<title>okra types&#45;&gt;okra legends</title>
<path fill="none" stroke="black" d="M239.18,-55.33C257.18,-62.41 279.8,-71.3 299.42,-79.02"/>
<polygon fill="black" stroke="black" points="298.19,-82.29 308.77,-82.7 300.75,-75.78 298.19,-82.29"/>
</g>
<!-- Go/Python/etc. package -->
<g id="node7" class="node">
<title>Go/Python/etc. package</title>
<polygon fill="none" stroke="black" points="781.87,-64.54 635.87,-64.54 635.87,-28.54 781.87,-28.54 781.87,-64.54"/>
<text text-anchor="middle" x="708.87" y="-42.84" font-family="Times,serif" font-size="14.00">Go/Python/etc. package</text>
</g>
<!-- okra types&#45;&gt;Go/Python/etc. package -->
<g id="edge8" class="edge">
<title>okra types&#45;&gt;Go/Python/etc. package</title>
<path fill="none" stroke="black" d="M238.55,-29.47C253.6,-23.99 271.98,-18.27 289.08,-15.54 425.48,6.23 463.09,3.71 599.87,-15.54 615.16,-17.69 631.32,-21.47 646.35,-25.67"/>
<polygon fill="black" stroke="black" points="645.47,-29.06 656.05,-28.48 647.42,-22.34 645.47,-29.06"/>
</g>
<!-- okra CRUD -->
<g id="node5" class="node">
<title>okra CRUD</title>
<ellipse fill="none" stroke="black" cx="518.37" cy="-96.54" rx="53.09" ry="18"/>
<text text-anchor="middle" x="518.37" y="-92.84" font-family="Times,serif" font-size="14.00">okra CRUD</text>
</g>
<!-- okra tables&#45;&gt;okra CRUD -->
<g id="edge4" class="edge">
<title>okra tables&#45;&gt;okra CRUD</title>
<path fill="none" stroke="black" d="M383.17,-54.25C408.33,-62.18 441.82,-72.73 469.05,-81.31"/>
<polygon fill="black" stroke="black" points="468.18,-84.71 478.77,-84.37 470.28,-78.03 468.18,-84.71"/>
</g>
<!-- MySQL/SQLite/etc. tables -->
<g id="node6" class="node">
<title>MySQL/SQLite/etc. tables</title>
<polygon fill="none" stroke="black" points="599.87,-60.54 436.87,-60.54 436.87,-24.54 599.87,-24.54 599.87,-60.54"/>
<text text-anchor="middle" x="518.37" y="-38.84" font-family="Times,serif" font-size="14.00">MySQL/SQLite/etc. tables</text>
</g>
<!-- okra tables&#45;&gt;MySQL/SQLite/etc. tables -->
<g id="edge6" class="edge">
<title>okra tables&#45;&gt;MySQL/SQLite/etc. tables</title>
<path fill="none" stroke="black" d="M394.63,-42.54C404.71,-42.54 415.63,-42.54 426.67,-42.54"/>
<polygon fill="black" stroke="black" points="426.81,-46.04 436.81,-42.54 426.81,-39.04 426.81,-46.04"/>
</g>
<!-- okra legends&#45;&gt;okra CRUD -->
<g id="edge5" class="edge">
<title>okra legends&#45;&gt;okra CRUD</title>
<path fill="none" stroke="black" d="M401.15,-96.54C418.25,-96.54 437.21,-96.54 454.77,-96.54"/>
<polygon fill="black" stroke="black" points="454.93,-100.04 464.93,-96.54 454.93,-93.04 454.93,-100.04"/>
</g>
<!-- okra CRUD&#45;&gt;Go/Python/etc. package -->
<g id="edge7" class="edge">
<title>okra CRUD&#45;&gt;Go/Python/etc. package</title>
<path fill="none" stroke="black" d="M560.74,-85.56C581.12,-80.16 606.38,-73.46 630.19,-67.14"/>
<polygon fill="black" stroke="black" points="631.16,-70.5 639.93,-64.56 629.37,-63.74 631.16,-70.5"/>
</g>
</g>
</svg>
