<?xml version="1.0" encoding="UTF-8" standalone="no"?>
<!DOCTYPE svg PUBLIC "-//W3C//DTD SVG 1.1//EN"
 "http://www.w3.org/Graphics/SVG/1.1/DTD/svg11.dtd">
<!-- Generated by graphviz version 2.43.0 (0)
 -->
<!-- Title: %3 Pages: 1 -->
<svg width="883pt" height="124pt"
 viewBox="0.00 0.00 882.54 123.86" xmlns="http://www.w3.org/2000/svg" xmlns:xlink="http://www.w3.org/1999/xlink">
<g id="graph0" class="graph" transform="scale(1 1) rotate(0) translate(4 119.86)">
<title>%3</title>
<!-- .proto schema -->
<g id="node1" class="node">
<title>.proto schema</title>
<ellipse fill="none" stroke="black" cx="61.09" cy="-43.86" rx="61.19" ry="18"/>
<text text-anchor="middle" x="61.09" y="-40.16" font-family="Times,serif" font-size="14.00">.proto schema</text>
</g>
<!-- okra types -->
<g id="node2" class="node">
<title>okra types</title>
<ellipse fill="none" stroke="black" cx="205.63" cy="-43.86" rx="47.39" ry="18"/>
<text text-anchor="middle" x="205.63" y="-40.16" font-family="Times,serif" font-size="14.00">okra types</text>
</g>
<!-- .proto schema&#45;&gt;okra types -->
<g id="edge1" class="edge">
<title>.proto schema&#45;&gt;okra types</title>
<path fill="none" stroke="black" d="M122.54,-43.86C130.96,-43.86 139.58,-43.86 147.92,-43.86"/>
<polygon fill="black" stroke="black" points="147.93,-47.36 157.93,-43.86 147.93,-40.36 147.93,-47.36"/>
</g>
<!-- okra tables -->
<g id="node3" class="node">
<title>okra tables</title>
<ellipse fill="none" stroke="black" cx="344.98" cy="-43.86" rx="49.29" ry="18"/>
<text text-anchor="middle" x="344.98" y="-40.16" font-family="Times,serif" font-size="14.00">okra tables</text>
</g>
<!-- okra types&#45;&gt;okra tables -->
<g id="edge2" class="edge">
<title>okra types&#45;&gt;okra tables</title>
<path fill="none" stroke="black" d="M253.13,-43.86C263.39,-43.86 274.39,-43.86 285.07,-43.86"/>
<polygon fill="black" stroke="black" points="285.18,-47.36 295.18,-43.86 285.18,-40.36 285.18,-47.36"/>
</g>
<!-- okra legends -->
<g id="node4" class="node">
<title>okra legends</title>
<ellipse fill="none" stroke="black" cx="344.98" cy="-97.86" rx="55.79" ry="18"/>
<text text-anchor="middle" x="344.98" y="-94.16" font-family="Times,serif" font-size="14.00">okra legends</text>
</g>
<!-- okra types&#45;&gt;okra legends -->
<g id="edge3" class="edge">
<title>okra types&#45;&gt;okra legends</title>
<path fill="none" stroke="black" d="M239.18,-56.66C257.18,-63.73 279.8,-72.63 299.42,-80.34"/>
<polygon fill="black" stroke="black" points="298.19,-83.62 308.77,-84.02 300.75,-77.1 298.19,-83.62"/>
</g>
<!-- Go/Python/etc. package -->
<g id="node7" class="node">
<title>Go/Python/etc. package</title>
<ellipse fill="none" stroke="black" cx="779.64" cy="-47.86" rx="94.78" ry="18"/>
<text text-anchor="middle" x="779.64" y="-44.16" font-family="Times,serif" font-size="14.00">Go/Python/etc. package</text>
</g>
<!-- okra types&#45;&gt;Go/Python/etc. package -->
<g id="edge8" class="edge">
<title>okra types&#45;&gt;Go/Python/etc. package</title>
<path fill="none" stroke="black" d="M238.55,-30.79C253.6,-25.31 271.98,-19.59 289.08,-16.86 446.94,8.33 489.99,1.82 648.75,-16.86 671.61,-19.55 696.28,-24.82 717.92,-30.26"/>
<polygon fill="black" stroke="black" points="717.07,-33.65 727.62,-32.76 718.82,-26.87 717.07,-33.65"/>
</g>
<!-- okra CRUD -->
<g id="node5" class="node">
<title>okra CRUD</title>
<ellipse fill="none" stroke="black" cx="542.81" cy="-97.86" rx="53.09" ry="18"/>
<text text-anchor="middle" x="542.81" y="-94.16" font-family="Times,serif" font-size="14.00">okra CRUD</text>
</g>
<!-- okra tables&#45;&gt;okra CRUD -->
<g id="edge4" class="edge">
<title>okra tables&#45;&gt;okra CRUD</title>
<path fill="none" stroke="black" d="M383.48,-55.34C399.83,-60.26 419.26,-65.98 436.87,-70.86 453.84,-75.56 472.42,-80.43 489.17,-84.72"/>
<polygon fill="black" stroke="black" points="488.78,-88.23 499.34,-87.31 490.51,-81.45 488.78,-88.23"/>
</g>
<!-- MySQL/SQLite/etc. tables -->
<g id="node6" class="node">
<title>MySQL/SQLite/etc. tables</title>
<ellipse fill="none" stroke="black" cx="542.81" cy="-43.86" rx="105.88" ry="18"/>
<text text-anchor="middle" x="542.81" y="-40.16" font-family="Times,serif" font-size="14.00">MySQL/SQLite/etc. tables</text>
</g>
<!-- okra tables&#45;&gt;MySQL/SQLite/etc. tables -->
<g id="edge6" class="edge">
<title>okra tables&#45;&gt;MySQL/SQLite/etc. tables</title>
<path fill="none" stroke="black" d="M394.38,-43.86C404.46,-43.86 415.48,-43.86 426.82,-43.86"/>
<polygon fill="black" stroke="black" points="426.85,-47.36 436.85,-43.86 426.85,-40.36 426.85,-47.36"/>
</g>
<!-- okra legends&#45;&gt;okra CRUD -->
<g id="edge5" class="edge">
<title>okra legends&#45;&gt;okra CRUD</title>
<path fill="none" stroke="black" d="M401.05,-97.86C425.41,-97.86 454.18,-97.86 479.34,-97.86"/>
<polygon fill="black" stroke="black" points="479.51,-101.36 489.51,-97.86 479.51,-94.36 479.51,-101.36"/>
</g>
<!-- okra CRUD&#45;&gt;Go/Python/etc. package -->
<g id="edge7" class="edge">
<title>okra CRUD&#45;&gt;Go/Python/etc. package</title>
<path fill="none" stroke="black" d="M588.26,-88.4C621.34,-81.35 667.22,-71.58 705.65,-63.4"/>
<polygon fill="black" stroke="black" points="706.71,-66.75 715.76,-61.25 705.25,-59.91 706.71,-66.75"/>
</g>
</g>
</svg>
