<?xml version="1.0" encoding="UTF-8" standalone="no"?>
<!DOCTYPE svg PUBLIC "-//W3C//DTD SVG 1.1//EN"
 "http://www.w3.org/Graphics/SVG/1.1/DTD/svg11.dtd">
<!-- Generated by graphviz version 2.40.1 (20161225.0304)
 -->
<!-- Title: %3 Pages: 1 -->
<svg width="782pt" height="167pt"
 viewBox="0.00 0.00 782.48 167.00" xmlns="http://www.w3.org/2000/svg" xmlns:xlink="http://www.w3.org/1999/xlink">
<g id="graph0" class="graph" transform="scale(1 1) rotate(0) translate(4 163)">
<title>%3</title>
<!-- .proto schema -->
<g id="node1" class="node">
<title>.proto schema</title>
<polygon fill="none" stroke="#000000" points="94,-63 0,-63 0,-27 94,-27 94,-63"/>
<text text-anchor="middle" x="47" y="-41.3" font-family="Times,serif" font-size="14.00" fill="#000000">.proto schema</text>
</g>
<!-- okra types -->
<g id="node2" class="node">
<title>okra types</title>
<ellipse fill="none" stroke="#000000" cx="187.8449" cy="-79" rx="47.3916" ry="18"/>
<text text-anchor="middle" x="187.8449" y="-75.3" font-family="Times,serif" font-size="14.00" fill="#000000">okra types</text>
</g>
<!-- .proto schema&#45;&gt;okra types -->
<g id="edge1" class="edge">
<title>.proto schema&#45;&gt;okra types</title>
<path fill="none" stroke="#000000" d="M94.2911,-56.4161C108.1815,-59.7692 123.4225,-63.4484 137.4964,-66.8459"/>
<polygon fill="#000000" stroke="#000000" points="136.9599,-70.3168 147.5021,-69.2612 138.6026,-63.5123 136.9599,-70.3168"/>
</g>
<!-- proto options -->
<g id="node3" class="node">
<title>proto options</title>
<ellipse fill="none" stroke="#000000" cx="187.8449" cy="-18" rx="57.6901" ry="18"/>
<text text-anchor="middle" x="187.8449" y="-14.3" font-family="Times,serif" font-size="14.00" fill="#000000">proto options</text>
</g>
<!-- .proto schema&#45;&gt;proto options -->
<g id="edge2" class="edge">
<title>.proto schema&#45;&gt;proto options</title>
<path fill="none" stroke="#000000" d="M94.2911,-35.9343C105.2933,-33.8252 117.1428,-31.5536 128.5886,-29.3595"/>
<polygon fill="#000000" stroke="#000000" points="129.3493,-32.7774 138.5115,-27.4572 128.0314,-25.9026 129.3493,-32.7774"/>
</g>
<!-- okra tables -->
<g id="node4" class="node">
<title>okra tables</title>
<ellipse fill="none" stroke="#000000" cx="337.5848" cy="-87" rx="49.2915" ry="18"/>
<text text-anchor="middle" x="337.5848" y="-83.3" font-family="Times,serif" font-size="14.00" fill="#000000">okra tables</text>
</g>
<!-- okra types&#45;&gt;okra tables -->
<g id="edge3" class="edge">
<title>okra types&#45;&gt;okra tables</title>
<path fill="none" stroke="#000000" d="M235.2235,-81.5313C248.944,-82.2643 264.0949,-83.0737 278.4393,-83.8401"/>
<polygon fill="#000000" stroke="#000000" points="278.5372,-87.3502 288.7097,-84.3888 278.9107,-80.3602 278.5372,-87.3502"/>
</g>
<!-- okra legends -->
<g id="node5" class="node">
<title>okra legends</title>
<ellipse fill="none" stroke="#000000" cx="337.5848" cy="-141" rx="55.7903" ry="18"/>
<text text-anchor="middle" x="337.5848" y="-137.3" font-family="Times,serif" font-size="14.00" fill="#000000">okra legends</text>
</g>
<!-- okra types&#45;&gt;okra legends -->
<g id="edge4" class="edge">
<title>okra types&#45;&gt;okra legends</title>
<path fill="none" stroke="#000000" d="M219.9678,-92.3006C241.4934,-101.2133 270.1086,-113.0614 293.7242,-122.8395"/>
<polygon fill="#000000" stroke="#000000" points="292.5907,-126.1583 303.169,-126.7501 295.2687,-119.6907 292.5907,-126.1583"/>
</g>
<!-- Go/Python/etc. package -->
<g id="node8" class="node">
<title>Go/Python/etc. package</title>
<polygon fill="none" stroke="#000000" points="774.4798,-59 628.4798,-59 628.4798,-23 774.4798,-23 774.4798,-59"/>
<text text-anchor="middle" x="701.4798" y="-37.3" font-family="Times,serif" font-size="14.00" fill="#000000">Go/Python/etc. package</text>
</g>
<!-- okra types&#45;&gt;Go/Python/etc. package -->
<g id="edge9" class="edge">
<title>okra types&#45;&gt;Go/Python/etc. package</title>
<path fill="none" stroke="#000000" d="M228.2702,-69.3918C244.7456,-65.8492 264.0363,-62.1733 281.6897,-60 397.8879,-45.6946 533.3645,-41.8581 618.2891,-40.9867"/>
<polygon fill="#000000" stroke="#000000" points="618.4228,-44.4857 628.3904,-40.8946 618.3589,-37.486 618.4228,-44.4857"/>
</g>
<!-- proto options&#45;&gt;Go/Python/etc. package -->
<g id="edge10" class="edge">
<title>proto options&#45;&gt;Go/Python/etc. package</title>
<path fill="none" stroke="#000000" d="M245.8993,-17.3712C324.5626,-16.9576 469.3335,-17.7479 592.4798,-27 600.8213,-27.6267 609.5027,-28.4494 618.1629,-29.3825"/>
<polygon fill="#000000" stroke="#000000" points="617.9691,-32.8827 628.298,-30.5236 618.7524,-25.9267 617.9691,-32.8827"/>
</g>
<!-- okra CRUD -->
<g id="node6" class="node">
<title>okra CRUD</title>
<ellipse fill="none" stroke="#000000" cx="510.9798" cy="-141" rx="53.0913" ry="18"/>
<text text-anchor="middle" x="510.9798" y="-137.3" font-family="Times,serif" font-size="14.00" fill="#000000">okra CRUD</text>
</g>
<!-- okra tables&#45;&gt;okra CRUD -->
<g id="edge5" class="edge">
<title>okra tables&#45;&gt;okra CRUD</title>
<path fill="none" stroke="#000000" d="M375.2089,-98.7172C400.5797,-106.6184 434.3105,-117.1231 461.8038,-125.6852"/>
<polygon fill="#000000" stroke="#000000" points="461.0352,-129.1116 471.6236,-128.7434 463.1166,-122.4282 461.0352,-129.1116"/>
</g>
<!-- MySQL/SQLite/etc. tables -->
<g id="node7" class="node">
<title>MySQL/SQLite/etc. tables</title>
<polygon fill="none" stroke="#000000" points="592.4798,-105 429.4798,-105 429.4798,-69 592.4798,-69 592.4798,-105"/>
<text text-anchor="middle" x="510.9798" y="-83.3" font-family="Times,serif" font-size="14.00" fill="#000000">MySQL/SQLite/etc. tables</text>
</g>
<!-- okra tables&#45;&gt;MySQL/SQLite/etc. tables -->
<g id="edge7" class="edge">
<title>okra tables&#45;&gt;MySQL/SQLite/etc. tables</title>
<path fill="none" stroke="#000000" d="M387.2728,-87C397.3099,-87 408.1618,-87 419.124,-87"/>
<polygon fill="#000000" stroke="#000000" points="419.2022,-90.5001 429.2021,-87 419.2021,-83.5001 419.2022,-90.5001"/>
</g>
<!-- okra legends&#45;&gt;okra CRUD -->
<g id="edge6" class="edge">
<title>okra legends&#45;&gt;okra CRUD</title>
<path fill="none" stroke="#000000" d="M393.8812,-141C410.9925,-141 429.9129,-141 447.4651,-141"/>
<polygon fill="#000000" stroke="#000000" points="447.6175,-144.5001 457.6174,-141 447.6174,-137.5001 447.6175,-144.5001"/>
</g>
<!-- okra CRUD&#45;&gt;Go/Python/etc. package -->
<g id="edge8" class="edge">
<title>okra CRUD&#45;&gt;Go/Python/etc. package</title>
<path fill="none" stroke="#000000" d="M552.4644,-129.645C565.5627,-125.4335 579.8942,-120.1576 592.4798,-114 620.1703,-100.4523 649.05,-80.8239 670.1207,-65.3318"/>
<polygon fill="#000000" stroke="#000000" points="672.4346,-67.9725 678.3617,-59.1907 668.2518,-62.3596 672.4346,-67.9725"/>
</g>
</g>
</svg>
